HIERARCHY
ROOT Hips
{
	OFFSET 0.00000 0.00000 0.00000
	CHANNELS 6 Xposition Yposition Zposition Zrotation Yrotation Xrotation 
	JOINT LHipJoint
	{
		OFFSET 0 0 0
		CHANNELS 3 Zrotation Yrotation Xrotation
		JOINT LeftUpLeg
		{
			OFFSET 1.38691 -1.89057 0.78360
			CHANNELS 3 Zrotation Yrotation Xrotation
			JOINT LeftLeg
			{
				OFFSET 2.59731 -7.13606 0.00000
				CHANNELS 3 Zrotation Yrotation Xrotation
				JOINT LeftFoot
				{
					OFFSET 2.70078 -7.42033 0.00000
					CHANNELS 3 Zrotation Yrotation Xrotation
					JOINT LeftToeBase
					{
						OFFSET 0.16751 -0.46024 2.68862
						CHANNELS 3 Zrotation Yrotation Xrotation
						End Site
						{
							OFFSET 0.00000 -0.00000 1.37057
						}
					}
				}
			}
		}
	}
	JOINT RHipJoint
	{
		OFFSET 0 0 0
		CHANNELS 3 Zrotation Yrotation Xrotation
		JOINT RightUpLeg
		{
			OFFSET -1.38190 -1.89056 0.78359
			CHANNELS 3 Zrotation Yrotation Xrotation
			JOINT RightLeg
			{
				OFFSET -2.57785 -7.08258 0.00000
				CHANNELS 3 Zrotation Yrotation Xrotation
				JOINT RightFoot
				{
					OFFSET -2.77908 -7.63547 0.00000
					CHANNELS 3 Zrotation Yrotation Xrotation
					JOINT RightToeBase
					{
						OFFSET -0.17921 -0.49237 2.62360
						CHANNELS 3 Zrotation Yrotation Xrotation
						End Site
						{
							OFFSET -0.00000 -0.00000 1.34085
						}
					}
				}
			}
		}
	}
	JOINT LowerBack
	{
		OFFSET 0 0 0
		CHANNELS 3 Zrotation Yrotation Xrotation
		JOINT Spine
		{
			OFFSET -0.10749 2.04110 -0.22549
			CHANNELS 3 Zrotation Yrotation Xrotation
			JOINT Spine1
			{
				OFFSET 0.01213 2.05840 0.00691
				CHANNELS 3 Zrotation Yrotation Xrotation
				JOINT Neck
				{
					OFFSET 0 0 0
					CHANNELS 3 Zrotation Yrotation Xrotation
					JOINT Neck1
					{
						OFFSET 0.06585 1.81215 0.35449
						CHANNELS 3 Zrotation Yrotation Xrotation
						JOINT Head
						{
							OFFSET -0.04315 1.87555 -0.27307
							CHANNELS 3 Zrotation Yrotation Xrotation
							End Site
							{
								OFFSET -0.01775 1.89740 -0.13294
							}
						}
					}
				}
				JOINT LeftShoulder
				{
					OFFSET 0 0 0
					CHANNELS 3 Zrotation Yrotation Xrotation
					JOINT LeftArm
					{
						OFFSET 2.98012 1.63606 0.28888
						CHANNELS 3 Zrotation Yrotation Xrotation
						JOINT LeftForeArm
						{
							OFFSET 5.59864 -0.00000 -0.00000
							CHANNELS 3 Zrotation Yrotation Xrotation
							JOINT LeftHand
							{
								OFFSET 3.59542 -0.00000 -0.00000
								CHANNELS 3 Zrotation Yrotation Xrotation
								JOINT LeftFingerBase
								{
									OFFSET 0 0 0
									CHANNELS 3 Zrotation Yrotation Xrotation
									JOINT LeftHandIndex1
									{
										OFFSET 0.57201 -0.00000 -0.00000
										CHANNELS 3 Zrotation Yrotation Xrotation
										End Site
										{
											OFFSET 0.46117 -0.00000 -0.00000
										}
									}
								}
								JOINT LThumb
								{
									OFFSET 0 0 0
									CHANNELS 3 Zrotation Yrotation Xrotation
									End Site
									{
										OFFSET 0.46821 -0.00000 0.46821
									}
								}
							}
						}
					}
				}
				JOINT RightShoulder
				{
					OFFSET 0 0 0
					CHANNELS 3 Zrotation Yrotation Xrotation
					JOINT RightArm
					{
						OFFSET -3.08694 1.53706 0.36335
						CHANNELS 3 Zrotation Yrotation Xrotation
						JOINT RightForeArm
						{
							OFFSET -5.80940 -0.00000 -0.00000
							CHANNELS 3 Zrotation Yrotation Xrotation
							JOINT RightHand
							{
								OFFSET -3.66953 -0.00000 -0.00000
								CHANNELS 3 Zrotation Yrotation Xrotation
								JOINT RightFingerBase
								{
									OFFSET 0 0 0
									CHANNELS 3 Zrotation Yrotation Xrotation
									JOINT RightHandIndex1
									{
										OFFSET -0.57843 -0.00000 -0.00000
										CHANNELS 3 Zrotation Yrotation Xrotation
										End Site
										{
											OFFSET -0.46635 -0.00000 -0.00000
										}
									}
								}
								JOINT RThumb
								{
									OFFSET 0 0 0
									CHANNELS 3 Zrotation Yrotation Xrotation
									End Site
									{
										OFFSET -0.47347 -0.00000 0.47347
									}
								}
							}
						}
					}
				}
			}
		}
	}
}
MOTION
Frames: 13
Frame Time: 0.0540541
0.00 0.00 0.00 -3.3008 70.1948 10.1746 0.0000 0.0000 0.0000 4.9426 -7.5166 -62.7543 25.3550 19.2981 105.8351 2.6354 -31.9906 -34.6321 2.1633 -9.1983 -26.4176 0.0000 0.0000 0.0000 2.4666 15.5625 -68.3649 -23.3950 -19.7214 99.9707 2.1149 37.9552 -17.3122 -0.0245 1.0114 -2.7802 -3.7066 -0.6215 25.7627 0.7243 -1.4504 4.4647 3.3978 -0.4501 -9.2277 -4.0933 -11.1678 -20.9190 10.1636 -17.6129 27.1827 1.3704 -6.6231 14.1628 0.0000 -0.0000 0.0000 -70.0658 6.1841 44.3412 72.5961 -58.8240 -44.9873 -0.0000 0.0000 -43.6654 28.6875 25.6294 13.3163 -7.1250 0.0000 -0.0000 -1.2071 58.6490 -0.4029 0.0000 -0.0000 0.0000 82.2451 -2.4466 34.9248 -26.3356 37.5382 -9.0914 0.0000 -0.0000 -0.3973 -43.5208 11.8614 -11.0450 7.1250 -0.0000 -0.0000 -11.0540 -14.0367 -8.1999
0.00 0.00 0.00 -3.5579 69.8385 7.2049 0.0000 0.0000 0.0000 9.6450 -6.7225 -61.7432 27.8948 18.4348 113.6781 -0.2225 -38.3890 -26.4619 1.4707 -7.6634 -21.6963 0.0000 0.0000 0.0000 3.5170 14.2869 -70.4054 -27.1407 -18.7308 111.3122 2.0557 39.1181 -18.8635 -0.0544 1.5046 -4.1384 -4.1352 -0.5434 25.1307 -0.0040 -1.5356 4.2953 2.8476 -0.4958 -9.0940 -3.8941 -9.6515 -23.4539 9.3381 -15.8739 32.6624 1.3377 -5.5011 17.0317 0.0000 -0.0000 0.0000 -55.9309 -9.2603 37.9551 68.9194 -58.2524 -41.8508 -0.0000 0.0000 -47.5935 27.9179 26.1605 13.1493 -7.1250 0.0000 -0.0000 -2.2768 59.0350 -0.7811 0.0000 -0.0000 0.0000 79.8868 17.6399 21.6192 -12.8319 21.0404 -2.3926 0.0000 0.0000 17.9304 -43.9560 14.4211 -13.5028 7.1250 -0.0000 -0.0000 -10.8195 -10.5925 -8.8089
0.00 0.00 0.00 -3.7329 72.2018 4.7431 0.0000 0.0000 0.0000 1.3844 -11.1831 -53.0125 24.2021 19.5713 102.3711 1.5396 -31.3657 -29.6464 1.5502 -7.8586 -22.2853 0.0000 0.0000 0.0000 3.4509 15.0112 -56.9320 -22.0773 -19.8962 96.0838 2.2104 36.4335 -15.0717 -0.0002 0.1014 -0.2786 -4.0442 0.1012 23.6837 0.5066 -0.6810 2.7381 3.0891 -0.0722 -10.1442 -4.6030 -9.4611 -22.6689 9.2934 -15.5190 35.2162 1.6238 -5.2919 18.2586 -0.0000 0.0000 0.0000 -39.8350 -25.6535 30.5376 88.6050 -59.9926 -58.7919 -0.0000 0.0000 -45.7822 32.2214 25.2117 15.0277 -7.1250 0.0000 -0.0000 3.0247 59.0512 1.0392 -0.0000 0.0000 0.0000 68.8423 22.9449 23.7893 -15.0841 24.2631 -3.2604 0.0000 0.0000 4.7786 -39.5289 7.5530 -6.1904 7.1250 -0.0000 -0.0000 -9.1064 -20.2828 -5.4534
0.00 0.00 0.00 -5.3284 74.5419 1.7961 0.0000 0.0000 0.0000 -5.1465 -13.0277 -45.9600 20.4972 19.9941 91.4540 2.0582 -25.1436 -29.2446 1.6154 -8.0142 -22.7573 0.0000 0.0000 0.0000 3.5343 16.0821 -45.3235 -16.9671 -19.7780 81.1008 1.4719 31.9183 -14.3436 -0.0307 -1.1303 3.1073 -4.3515 0.1342 22.4255 1.0743 -0.6592 1.8338 3.8843 -0.0287 -10.4763 -4.9494 -9.6947 -20.9739 8.9500 -15.7569 37.3624 1.6116 -5.3913 19.0894 -0.0000 0.0000 0.0000 -30.2907 -31.7082 27.3331 94.8260 -59.9118 -64.1782 -0.0000 0.0000 -38.3819 32.6473 22.5755 13.8183 -7.1250 0.0000 -0.0000 4.0676 56.2124 1.1198 -0.0000 0.0000 0.0000 57.4369 17.8593 34.6362 -26.4283 37.6286 -9.1479 0.0000 -0.0000 -7.2044 -34.4117 3.8265 -2.6174 7.1250 -0.0000 -0.0000 -5.8556 -25.3418 -2.7997
0.00 0.00 0.00 -8.5208 77.3948 -2.6808 0.0000 0.0000 0.0000 -9.4569 -14.4216 -35.7338 15.2463 19.4494 75.9775 1.8607 -19.8082 -26.3477 1.5720 -7.9111 -22.4444 0.0000 0.0000 0.0000 3.9583 15.7160 -37.5533 -13.2550 -18.8723 69.9156 0.8213 23.6260 -10.1904 -0.1585 -2.5654 7.0710 -5.5939 -1.6593 23.6750 2.1574 -3.3418 0.2784 6.7904 -1.0665 -12.5290 -6.0366 -8.5838 -17.1952 7.8418 -13.2266 38.6798 2.0663 -4.7913 18.5190 0.0000 -0.0000 0.0000 -18.2809 -25.4300 22.7811 100.4946 -59.5797 -69.0758 -0.0000 0.0000 -24.6740 30.3508 18.2083 10.3685 -7.1250 0.0000 -0.0000 2.2922 50.8320 0.3295 0.0000 -0.0000 0.0000 46.5676 11.0350 40.3419 -52.0946 53.8061 -27.8559 0.0000 -0.0000 -12.1808 -26.3473 -1.8798 0.9307 7.1250 -0.0000 -0.0000 0.1878 -32.0772 0.0594
0.00 0.00 0.00 -10.3688 76.7580 -4.9149 0.0000 0.0000 0.0000 -9.4595 -14.0540 -29.4045 12.1287 18.4445 66.3960 1.4449 -16.9912 -23.0238 1.3221 -7.2820 -20.5537 0.0000 0.0000 0.0000 4.6517 15.7684 -37.6441 -12.9568 -18.7665 68.9913 1.1674 20.8904 -2.2055 -0.3444 -3.7709 10.4331 -6.4869 -2.4342 23.9370 2.0235 -4.6590 0.0522 7.6074 -1.6097 -12.6769 -4.1143 -7.3793 -15.4980 5.8302 -11.2397 39.3243 1.3088 -4.0323 17.8155 0.0000 0.0000 0.0000 -13.1647 -17.9914 16.6080 94.5210 -59.9226 -63.9142 -0.0000 0.0000 -11.8331 34.4939 19.2122 12.7409 -7.1250 0.0000 -0.0000 6.5113 52.7831 1.2513 0.0000 0.0000 0.0000 42.6254 8.0650 38.8589 -75.9288 59.2385 -47.8452 0.0000 -0.0000 -13.2704 -21.8012 -6.3162 2.5197 7.1250 -0.0000 -0.0000 4.1776 -36.7502 0.8495
0.00 0.00 0.00 -9.9967 75.1382 -4.7070 0.0000 0.0000 0.0000 -9.1066 -13.4928 -24.3753 9.8119 17.3027 58.8577 0.9948 -15.8115 -19.6096 0.6505 -5.1591 -14.3630 0.0000 0.0000 0.0000 4.7041 15.8670 -40.1498 -13.8027 -19.0531 71.6009 1.2451 19.3107 6.2946 -0.4734 -4.4128 12.2410 -7.3577 -2.5667 24.1182 1.7009 -5.1269 0.1543 7.8920 -1.7937 -12.5353 -2.2262 -6.3968 -14.8859 4.6299 -9.8846 39.9788 0.7391 -3.3670 17.6601 0.0000 -0.0000 0.0000 -12.2408 -13.2980 8.8098 82.7308 -59.7994 -53.7089 -0.0000 0.0000 -6.5094 34.4706 20.3372 13.4198 -7.1250 0.0000 -0.0000 6.3914 54.0751 1.4301 0.0000 -0.0000 0.0000 40.0556 5.4747 35.8654 -95.2404 59.8960 -64.5367 0.0000 -0.0000 -12.7344 -20.6231 -8.8292 3.3059 7.1250 -0.0000 -0.0000 5.4707 -39.3470 0.7648
0.00 0.00 0.00 -10.0311 71.5047 -4.8754 0.0000 0.0000 0.0000 -7.5799 -12.9193 -16.1073 6.4122 14.8162 46.6143 0.2390 -15.4084 -13.2392 0.1829 2.7544 7.5957 0.0000 0.0000 0.0000 5.3711 15.1253 -46.9982 -16.6595 -19.7303 80.1906 -0.5246 11.5297 22.3057 -0.7610 -5.5712 15.5453 -8.7135 -2.3839 24.3375 1.5928 -5.2512 0.7420 8.5622 -1.8364 -11.8368 -0.7574 -4.6590 -14.2463 4.1953 -7.5134 40.6745 0.7666 -2.2451 17.6391 -0.0000 0.0000 0.0000 -14.1905 -5.1664 -6.0252 65.3999 -57.5851 -38.8684 -0.0000 0.0000 -14.6715 34.8733 23.6777 15.6357 -7.1250 0.0000 -0.0000 6.4614 57.9872 2.0592 -0.0000 0.0000 0.0000 36.0982 0.9590 27.3616 -117.7208 56.8873 -83.7560 0.0000 -0.0000 -10.0196 -20.1877 -10.5718 3.8592 7.1250 -0.0000 -0.0000 6.1056 -41.1501 0.5822
0.00 0.00 0.00 -7.4037 65.3167 -2.4088 0.0000 0.0000 0.0000 -6.3810 -10.6228 -6.6880 3.2071 11.0230 32.3576 0.5097 -10.1323 -13.6145 1.0986 6.6603 18.7128 0.0000 0.0000 0.0000 6.0554 13.0266 -58.8576 -22.0737 -19.8966 96.0732 -3.1518 -6.6262 32.3116 -0.6697 -5.2334 14.5755 -10.3062 -2.1063 25.9290 0.5609 -5.5583 1.4257 8.4765 -1.9280 -11.8030 0.7786 -2.0997 -13.9566 3.5342 -3.8245 41.5282 0.8878 -0.6228 17.8262 0.0000 -0.0000 0.0000 -16.7231 11.4316 -21.9502 45.0006 -50.7688 -22.2392 -0.0000 0.0000 -27.1744 36.7583 27.2126 18.8591 -7.1250 0.0000 -0.0000 8.2789 62.4867 3.5310 0.0000 -0.0000 0.0000 30.9142 -6.4102 9.0269 -130.4762 52.8016 -94.2056 0.0000 -0.0000 -10.1624 -20.4551 -12.4777 4.6074 7.1250 -0.0000 -0.0000 6.1930 -43.1832 0.2788
0.00 0.00 0.00 -3.5542 60.6163 1.2317 0.0000 0.0000 0.0000 -5.6241 -8.2826 -5.5262 3.2917 11.1529 32.7971 0.4500 -1.9001 -12.1567 0.3987 4.0540 11.2287 0.0000 0.0000 0.0000 5.5085 9.1137 -70.2175 -26.9151 -18.8126 110.6109 -4.4749 -13.7789 38.5124 -0.1033 -2.0722 5.7053 -10.2671 -0.6442 28.5712 -2.4050 -4.2042 2.1167 4.4413 -1.3626 -12.1352 5.5162 -1.5360 -14.2866 3.3807 -4.4929 40.3128 -0.1875 -0.2382 17.1386 -0.0000 0.0000 0.0000 -17.4133 24.0452 -26.1259 32.4338 -42.8903 -13.0351 -0.0000 0.0000 -43.0497 36.7279 30.8492 20.9370 -7.1250 0.0000 -0.0000 7.4331 66.5332 3.8674 -0.0000 0.0000 0.0000 29.6416 -21.7098 -15.6477 -119.9055 56.3351 -85.5803 0.0000 -0.0000 -9.2060 -25.1107 -13.1184 6.0717 7.1250 -0.0000 -0.0000 2.0582 -44.4030 0.0303
0.00 0.00 0.00 -3.1133 59.7665 1.8919 0.0000 0.0000 0.0000 -4.2833 -7.2172 -9.0994 4.8577 13.2217 40.2041 0.4020 -0.5280 -11.8044 0.1707 2.6613 7.3371 0.0000 0.0000 0.0000 5.9424 6.4268 -74.6957 -28.2634 -18.2771 114.8485 -4.8194 -18.1914 40.2732 -0.1685 -2.6444 7.2904 -10.2678 -0.1067 30.2730 -2.6153 -3.6721 2.6063 4.0469 -1.1017 -12.4163 6.0914 -1.1996 -14.8923 3.9130 -4.4423 39.5835 -0.0595 -0.0884 16.9171 0.0000 -0.0000 0.0000 -21.8339 28.5826 -28.9815 28.7100 -39.7617 -10.5748 -0.0000 0.0000 -48.2451 35.9053 31.9191 20.9471 -7.1250 0.0000 -0.0000 5.8635 67.4554 3.1717 0.0000 -0.0000 0.0000 27.4296 -29.0521 -25.3457 -101.7841 59.4687 -70.1871 0.0000 -0.0000 -7.5161 -27.7546 -12.3872 6.4406 7.1250 -0.0000 -0.0000 -0.4644 -43.9175 -0.0124
0.00 0.00 0.00 -4.3948 60.0243 1.0466 0.0000 0.0000 0.0000 -1.6728 -6.4835 -14.1509 7.2798 15.5630 49.9247 0.3952 -2.6096 -11.2616 0.0349 1.2056 3.3147 0.0000 0.0000 0.0000 7.4014 4.0816 -77.5321 -28.7222 -18.0684 116.3194 -5.0778 -22.0878 41.8179 -0.4057 -4.0891 11.3274 -9.3899 0.0094 32.1728 -2.2436 -3.3380 3.0026 3.8857 -0.9573 -12.8608 5.9976 -0.6831 -15.5038 4.9318 -4.0820 39.2120 0.4695 0.1791 16.9321 0.0000 0.0000 0.0000 -27.4051 32.0642 -33.1408 25.6617 -36.8726 -8.6838 -0.0000 0.0000 -47.9081 33.1350 34.6620 20.3673 -7.1250 0.0000 -0.0000 0.2988 69.5269 0.1754 0.0000 0.0000 0.0000 24.5949 -34.9098 -32.1047 -76.5269 59.3029 -48.3592 0.0000 -0.0000 -8.4613 -29.8322 -12.4427 7.0436 7.1250 -0.0000 -0.0000 -2.3815 -44.2374 -0.0449
0.00 0.00 0.00 -11.9432 61.7583 -5.1167 0.0000 0.0000 0.0000 6.2005 -5.2109 -25.7607 13.0309 18.7933 69.2214 0.6337 -7.2693 -14.3133 0.2167 -2.9967 -8.2697 0.0000 0.0000 0.0000 11.9057 2.8514 -77.4586 -27.0963 -18.7471 111.1739 -5.4592 -23.7481 43.5885 -0.9271 -6.1340 17.1737 -5.0819 -1.0710 35.4830 -1.5823 -3.2011 3.8483 2.3117 -1.0513 -13.4989 8.1517 0.6706 -17.1582 5.8277 -3.3423 39.4099 0.6562 0.9670 17.5334 0.0000 0.0000 0.0000 -37.3172 37.2855 -42.0040 20.6834 -31.4570 -5.8839 -0.0000 0.0000 -45.2979 34.1914 36.8147 22.1515 -7.1250 0.0000 -0.0000 0.3821 72.1211 0.2463 0.0000 0.0000 0.0000 16.9723 -36.5585 -45.5639 -34.0264 44.1043 -14.1314 0.0000 -0.0000 -21.0746 -37.6481 -13.5264 10.2281 7.1250 -0.0000 -0.0000 -9.8144 -46.6414 0.4013
